<svg width="16" height="16" viewBox="0 0 16 16" fill="none" xmlns="http://www.w3.org/2000/svg">
<mask id="mask0_287_494" style="mask-type:alpha" maskUnits="userSpaceOnUse" x="0" y="0" width="16" height="16">
<rect width="16" height="16" fill="#D9D9D9"/>
</mask>
<g mask="url(#mask0_287_494)">
<path d="M6.76638 11.5C6.62238 11.3555 6.55038 11.1888 6.55038 11C6.55038 10.8112 6.62238 10.6445 6.76638 10.5L9.26638 8L6.76638 5.5C6.62238 5.35547 6.55038 5.1888 6.55038 5C6.55038 4.8112 6.62238 4.64454 6.76638 4.5C6.91092 4.35547 7.07758 4.2832 7.26638 4.2832C7.45572 4.2832 7.62238 4.35547 7.76638 4.5L10.7664 7.5C10.8443 7.57787 10.9 7.6584 10.9336 7.7416C10.9667 7.8248 10.9832 7.91094 10.9832 8C10.9832 8.08907 10.9667 8.1752 10.9336 8.2584C10.9 8.3416 10.8443 8.42214 10.7664 8.5L7.76638 11.5C7.62238 11.6445 7.45572 11.7168 7.26638 11.7168C7.07758 11.7168 6.91092 11.6445 6.76638 11.5Z" fill="black"/>
</g>
</svg>
