<svg width="16" height="16" viewBox="0 0 16 16" fill="none" xmlns="http://www.w3.org/2000/svg">
<mask id="mask0_631_1136" style="mask-type:alpha" maskUnits="userSpaceOnUse" x="0" y="0" width="16" height="16">
<rect width="16" height="16" fill="#D9D9D9"/>
</mask>
<g mask="url(#mask0_631_1136)">
<path d="M8.86665 11.5333L5.79999 8.46666C5.73332 8.39999 5.68621 8.32777 5.65865 8.24999C5.63065 8.17221 5.61665 8.08888 5.61665 7.99999C5.61665 7.9111 5.63065 7.82777 5.65865 7.74999C5.68621 7.67221 5.73332 7.59999 5.79999 7.53333L8.86665 4.46666C8.98888 4.34444 9.14443 4.28333 9.33332 4.28333C9.52221 4.28333 9.67776 4.34444 9.79999 4.46666C9.92221 4.58888 9.98332 4.74444 9.98332 4.93333C9.98332 5.12221 9.92221 5.27777 9.79999 5.39999L7.19999 7.99999L9.79999 10.6C9.92221 10.7222 9.98332 10.8778 9.98332 11.0667C9.98332 11.2555 9.92221 11.4111 9.79999 11.5333C9.67776 11.6555 9.52221 11.7167 9.33332 11.7167C9.14443 11.7167 8.98888 11.6555 8.86665 11.5333Z" fill="black"/>
</g>
</svg>
